#!OML:ASF I:\Actors\actors\Patient Classification 1\Patient 1\Session 1\Subject1.ASF
:FULLY-SPECIFIED
:DEGREES
220
root -0.702805 17.7096 7.48302 13.1727 4.31174 -8.37752
lowerback 10.2688 1.44684 4.42479
upperback 3.58783 2.34651 -0.0132059
thorax -1.83423 1.18568 -2.77097
lowerneck -16.2728 -1.32062 -0.564946
upperneck 11.8608 -2.65239 6.45172
head 6.37901 -0.760796 1.89513
rclavicle -9.14409e-015 -1.59028e-015
rhumerus 18.5399 19.1588 -91.1102
rradius 23.8697
rwrist 17.1471
rhand 5.46585 -31.064
rfingers 7.12502
rthumb 30.8142 -58.5007
lclavicle -9.14409e-015 -1.59028e-015
lhumerus 23.2738 4.73144 89.3732
lradius 14.4192
lwrist -14.6012
lhand -22.543 -11.4733
lfingers 7.12502
lthumb 3.88445 18.4711
rfemur -11.9323 25.2197 22.6639
rtibia 3.27662
rfoot -9.96276 -26.5987
rtoes 6.27767
lfemur -9.95887 -36.7876 -2.54112
ltibia -1.30149
lfoot -11.1004 44.8059
ltoes 4.19944
221
root -0.707975 17.7162 7.48257 13.703 4.62083 -8.49749
lowerback 10.2976 1.60599 4.50315
upperback 3.91415 2.55541 -0.0645326
thorax -1.48738 1.30421 -2.88396
lowerneck -16.4703 -1.48072 -0.694925
upperneck 11.2564 -2.81818 6.53634
head 6.22827 -0.850069 1.92333
rclavicle 1.47101e-014 3.10104e-014
rhumerus 19.6295 18.8522 -90.7838
rradius 23.5741
rwrist 17.7225
rhand 5.75987 -30.6831
rfingers 7.12502
rthumb 31.0945 -58.0665
lclavicle 1.47101e-014 3.10104e-014
lhumerus 24.5481 5.50252 90.444
lradius 14.0352
lwrist -15.471
lhand -22.9666 -11.4187
lfingers 7.12502
lthumb 3.47535 18.5327
rfemur -12.5573 25.3231 22.5127
rtibia 3.21198
rfoot -10.1281 -26.8833
rtoes 7.52361
lfemur -10.8739 -36.9981 -1.73594
ltibia -1.28977
lfoot -11.0642 44.9529
ltoes 4.16381
222
root -0.711104 17.7236 7.48485 14.1507 5.00276 -8.63853
lowerback 10.3452 1.68975 4.61012
upperback 4.22156 2.66912 -0.115853
thorax -1.1758 1.37522 -3.00316
lowerneck -16.2486 -1.51049 -0.547833
upperneck 10.3645 -2.82158 6.44357
head 5.9041 -0.877938 1.86603
rclavicle -5.1684e-015 -1.98785e-014
rhumerus 20.5489 17.9961 -90.9397
rradius 23.2514
rwrist 18.5087
rhand 6.42773 -30.3456
rfingers 7.12502
rthumb 31.7308 -57.6051
lclavicle -5.1684e-015 -1.98785e-014
lhumerus 25.6669 6.32705 91.3989
lradius 13.6996
lwrist -16.1358
lhand -23.2827 -11.5372
lfingers 7.12502
lthumb 3.17014 18.419
rfemur -13.0532 25.4289 22.433
rtibia 3.103
rfoot -10.231 -27.239
rtoes 8.44123
lfemur -11.702 -37.2943 -0.946754
ltibia -1.29292
lfoot -11.0044 45.1062
ltoes 4.15501
223
root -0.713831 17.7306 7.4875 14.4882 5.39768 -8.76047
lowerback 10.5474 1.69221 4.64907
upperback 4.50362 2.67812 -0.14679
thorax -0.987833 1.3902 -3.05908
lowerneck -15.9596 -1.46885 -0.471838
upperneck 9.51365 -2.73908 6.53226
head 5.58499 -0.853446 1.88752
rclavicle -3.53837e-014 9.54166e-015
rhumerus 21.4135 17.0325 -91.3617
rradius 22.9252
rwrist 19.1134
rhand 7.53053 -30.1346
rfingers 7.12502
rthumb 32.7805 -57.1808
lclavicle -3.53837e-014 9.54166e-015
lhumerus 26.6912 7.59729 92.4285
lradius 13.3643
lwrist -17.1791
lhand -23.3653 -11.7315
lfingers 7.12502
lthumb 3.09032 18.2259
rfemur -13.418 25.5282 22.4072
rtibia 3.01306
rfoot -10.1881 -27.6362
rtoes 8.30476
lfemur -12.3704 -37.6542 -0.269874
ltibia -1.32935
lfoot -10.9238 45.2875
ltoes 4.20879
224
root -0.717089 17.7368 7.48733 14.7607 5.76149 -8.86878
lowerback 10.8911 1.70288 4.6576
upperback 4.81692 2.70224 -0.135573
thorax -0.846268 1.41135 -3.06084
lowerneck -15.9978 -1.50994 -0.758583
upperneck 8.92546 -2.74 6.8635
head 5.41568 -0.852919 2.03695
rclavicle 7.55382e-015 -1.59028e-014
rhumerus 22.4129 16.3933 -91.4757
rradius 22.5551
rwrist 19.6036
rhand 8.29338 -30.0549
rfingers 7.12502
rthumb 33.5059 -56.947
lclavicle 7.55382e-015 -1.59028e-014
lhumerus 27.8364 8.98691 93.6449
lradius 12.9668
lwrist -18.5362
lhand -23.3477 -11.8594
lfingers 7.12502
lthumb 3.10733 18.0977
rfemur -13.7513 25.5865 22.4039
rtibia 3.00347
rfoot -10.1922 -27.9918
rtoes 8.46314
lfemur -12.9896 -37.7391 0.297112
ltibia -1.29066
lfoot -10.5848 45.2583
ltoes 3.89247
225
root -0.720246 17.7425 7.48577 15.0022 6.10138 -9.01311
lowerback 11.1944 1.7231 4.73774
upperback 5.16411 2.74261 -0.154643
thorax -0.639508 1.44446 -3.1334
lowerneck -16.0032 -1.54306 -0.874354
upperneck 8.35312 -2.74069 6.99774
head 5.24084 -0.861064 2.09622
rclavicle -3.1408e-014 -7.95139e-015
rhumerus 23.4296 15.8241 -91.5234
rradius 22.1585
rwrist 20.262
rhand 8.53835 -29.7696
rfingers 7.12502
rthumb 33.7387 -56.611
lclavicle -3.1408e-014 -7.95139e-015
lhumerus 29.0199 10.1444 94.7375
lradius 12.5854
lwrist -19.8889
lhand -23.3504 -11.899
lfingers 7.12502
lthumb 3.10471 18.0582
rfemur -14.0637 25.6638 22.4459
rtibia 3.00558
rfoot -10.3183 -28.3336
rtoes 9.19842
lfemur -13.589 -37.5428 0.836726
ltibia -1.20032
lfoot -9.95764 45.0124
ltoes 3.0419
226
root -0.724175 17.7492 7.48379 15.1864 6.42943 -9.20616
lowerback 11.49 1.70354 4.89923
upperback 5.52439 2.73739 -0.236901
thorax -0.409824 1.45865 -3.31187
lowerneck -15.9028 -1.52473 -0.819105
upperneck 7.74082 -2.70384 7.13308
head 5.03348 -0.848394 2.13154
rclavicle -9.54166e-015 4.69132e-014
rhumerus 24.3857 15.1198 -91.8755
rradius 21.564
rwrist 21.8698
rhand 8.34287 -28.9713
rfingers 7.12502
rthumb 33.553 -55.8532
lclavicle -9.54166e-015 4.69132e-014
lhumerus 30.1914 11.2827 95.6555
lradius 12.2684
lwrist -21.342
lhand -23.376 -11.9619
lfingers 7.12502
lthumb 3.08 17.9956
rfemur -14.3028 25.8137 22.5627
rtibia 2.98008
rfoot -10.4525 -28.6958
rtoes 9.71796
lfemur -14.0966 -37.2742 1.37932
ltibia -1.14512
lfoot -9.34059 44.7011
ltoes 2.15752
227
root -0.728541 17.7577 7.48156 15.3596 6.74481 -9.42566
lowerback 11.8699 1.66656 5.03971
upperback 5.84722 2.71398 -0.276559
thorax -0.268977 1.46049 -3.43699
lowerneck -15.7814 -1.54769 -0.987373
upperneck 7.11854 -2.69681 7.47607
head 4.82824 -0.844342 2.26556
rclavicle 1.35174e-014 -9.54166e-015
rhumerus 25.245 14.4657 -92.2856
rradius 20.6707
rwrist 24.8614
rhand 7.18977 -27.7882
rfingers 7.12502
rthumb 32.4563 -54.9015
lclavicle 1.35174e-014 -9.54166e-015
lhumerus 31.3783 12.5906 96.7406
lradius 11.9388
lwrist -22.9518
lhand -23.606 -12.1319
lfingers 7.12502
lthumb 2.85791 17.8286
rfemur -14.5357 25.9502 22.7201
rtibia 2.96305
rfoot -10.4781 -29.0434
rtoes 9.80202
lfemur -14.5815 -37.0019 1.93959
ltibia -1.08467
lfoot -8.93142 44.3884
ltoes 1.5753
228
root -0.731239 17.7653 7.48169 15.6004 6.97537 -9.61116
lowerback 12.2116 1.57355 4.98807
upperback 6.06166 2.59785 -0.338276
thorax -0.238964 1.40765 -3.46818
lowerneck -15.3962 -1.40998 -0.688056
upperneck 6.45521 -2.51742 7.41707
head 4.5479 -0.776664 2.2125
rclavicle 1.55052e-014 -1.82882e-014
rhumerus 26.0302 13.4673 -93.2473
rradius 20.0281
rwrist 26.453
rhand 7.35213 -27.4182
rfingers 7.12502
rthumb 32.6108 -54.4997
lclavicle 1.55052e-014 -1.82882e-014
lhumerus 32.5036 14.1335 97.675
lradius 11.5448
lwrist -24.5691
lhand -23.8762 -12.3964
lfingers 7.12502
lthumb 2.59695 17.5675
rfemur -14.8495 26.0504 22.8044
rtibia 2.96386
rfoot -10.3953 -29.3253
rtoes 9.5336
lfemur -15.0883 -36.7369 2.4688
ltibia -1.01224
lfoot -8.72685 44.13
ltoes 1.18581
